<svg xmlns="http://www.w3.org/2000/svg" viewBox="0 0 64 64" fill="none">
  <title>LLMbench</title>
  <!-- Two prose columns -->
  <g stroke="#8b3a3a" stroke-width="1.3" fill="none" stroke-linecap="round">
    <rect x="8" y="10" width="20" height="44" rx="1"/>
    <rect x="36" y="10" width="20" height="44" rx="1"/>
  </g>
  <!-- Lines of prose in each column -->
  <g stroke="#1a1a1a" stroke-width="1" stroke-linecap="round" opacity="0.85">
    <line x1="12" y1="18" x2="24" y2="18"/>
    <line x1="12" y1="23" x2="22" y2="23"/>
    <line x1="12" y1="28" x2="25" y2="28"/>
    <line x1="12" y1="33" x2="20" y2="33"/>
    <line x1="12" y1="38" x2="24" y2="38"/>
    <line x1="12" y1="43" x2="21" y2="43"/>
    <line x1="12" y1="48" x2="23" y2="48"/>
    <line x1="40" y1="18" x2="52" y2="18"/>
    <line x1="40" y1="23" x2="50" y2="23"/>
    <line x1="40" y1="28" x2="53" y2="28"/>
    <line x1="40" y1="33" x2="49" y2="33"/>
    <line x1="40" y1="38" x2="52" y2="38"/>
    <line x1="40" y1="43" x2="48" y2="43"/>
    <line x1="40" y1="48" x2="51" y2="48"/>
  </g>
  <!-- Divergence markers (highlighting differences) -->
  <g fill="#b8941e">
    <circle cx="28" cy="28" r="1.5"/>
    <circle cx="36" cy="33" r="1.5"/>
    <circle cx="28" cy="43" r="1.5"/>
  </g>
</svg>
